<?xml version="1.0" standalone="no"?>
<!DOCTYPE svg PUBLIC "-//W3C//DTD SVG 20010904//EN"
 "http://www.w3.org/TR/2001/REC-SVG-20010904/DTD/svg10.dtd">
<svg version="1.0" xmlns="http://www.w3.org/2000/svg"
 width="750.000000pt" height="750.000000pt" viewBox="0 0 750.000000 750.000000"
 preserveAspectRatio="xMidYMid meet">
<metadata>
Created by potrace 1.14, written by Peter Selinger 2001-2017
</metadata>
<g transform="translate(0.000000,750.000000) scale(0.100000,-0.100000)"
fill="#000000" stroke="none">
<path d="M2690 7108 c0 -4 -17 -7 -37 -7 -35 1 -141 -18 -203 -36 -14 -4 -37
-9 -52 -12 -16 -3 -28 -9 -28 -14 0 -5 -7 -9 -16 -9 -33 0 -153 -66 -309 -169
-88 -58 -164 -110 -170 -114 -5 -4 -82 -55 -170 -114 -184 -121 -201 -135
-210 -171 -4 -15 -13 -34 -20 -42 -7 -8 -18 -41 -24 -72 -10 -58 -35 -108 -53
-108 -5 0 -7 -4 -3 -9 6 -11 -15 -61 -27 -61 -4 0 -8 -5 -8 -12 0 -13 -73 -87
-104 -105 -33 -18 -109 -55 -121 -58 -5 -1 -18 -5 -28 -10 -9 -4 -26 -5 -37
-2 -11 3 -20 1 -20 -3 0 -5 -29 -7 -65 -6 -36 1 -65 -2 -65 -6 0 -4 -5 -8 -11
-8 -9 0 -127 -75 -139 -89 -7 -8 -41 -29 -60 -38 -8 -3 -31 -19 -51 -35 -20
-15 -42 -28 -48 -28 -17 0 -32 -37 -26 -63 4 -13 7 -30 9 -38 1 -8 8 -24 14
-36 7 -13 10 -23 7 -23 -3 0 11 -31 30 -69 19 -37 35 -71 35 -75 0 -8 77 -124
94 -142 33 -34 56 -65 56 -74 0 -6 4 -10 8 -10 4 0 33 -24 64 -52 30 -29 63
-59 71 -65 22 -17 52 -16 67 2 6 8 33 26 58 41 26 15 49 30 52 33 7 8 93 67
105 72 31 12 105 75 105 89 0 27 59 127 99 167 57 59 85 79 148 111 97 49 113
56 120 49 3 -4 11 -3 18 3 14 12 149 16 200 6 22 -4 56 -17 75 -29 19 -12 38
-22 42 -22 19 0 112 -101 156 -170 28 -44 58 -87 66 -96 9 -9 16 -21 16 -27 0
-6 12 -20 26 -31 24 -19 28 -19 55 -6 16 9 32 15 35 14 4 0 10 3 13 9 3 5 65
48 136 95 72 48 135 90 141 95 5 5 21 15 35 22 13 7 26 16 29 19 11 13 70 51
80 51 5 0 10 5 10 10 0 6 4 10 10 10 8 0 96 56 110 70 14 14 70 50 78 50 20 0
64 59 58 77 -8 26 -115 187 -127 191 -5 2 -9 8 -9 13 0 5 -19 41 -41 79 -23
38 -41 72 -41 77 1 4 -6 19 -14 32 -9 12 -17 41 -19 62 -1 22 -7 45 -13 52 -9
11 -9 20 2 65 3 9 5 27 5 39 1 34 108 133 125 116 3 -3 6 -2 6 3 0 5 21 16 48
23 26 8 51 16 56 19 9 5 32 9 96 16 14 2 27 4 30 6 12 6 187 6 215 0 16 -3 41
-4 55 0 14 3 45 2 70 -2 25 -5 70 -13 100 -18 30 -4 73 -13 95 -18 22 -6 56
-13 75 -16 32 -5 96 -17 158 -30 13 -3 32 -8 42 -11 10 -3 28 -8 40 -10 12 -2
29 -6 38 -9 9 -3 33 -7 52 -10 19 -3 46 -8 60 -11 14 -3 48 -8 75 -12 67 -7
80 7 54 61 -20 42 -78 106 -95 106 -7 0 -14 7 -18 15 -3 8 -12 15 -19 15 -8 0
-20 7 -27 15 -7 9 -28 23 -46 31 -19 9 -34 20 -34 25 0 5 -8 9 -18 9 -11 0
-29 9 -41 19 -13 11 -35 23 -51 26 -16 3 -34 13 -40 20 -7 8 -27 17 -45 21
-19 3 -41 15 -51 25 -9 10 -28 19 -41 19 -21 0 -61 17 -73 31 -5 6 -13 9 -110
35 -30 8 -57 18 -60 23 -7 11 -124 42 -215 57 -16 3 -41 9 -55 14 -22 8 -74
18 -180 35 -19 3 -57 10 -85 15 -27 5 -63 10 -80 10 -16 0 -52 1 -80 1 -27 0
-83 1 -122 2 -40 1 -73 -1 -73 -5z"/>
<path d="M3170 5692 c-8 -3 -17 -8 -20 -12 -7 -10 -458 -310 -466 -310 -4 0
-14 -7 -23 -16 -23 -22 -210 -144 -221 -144 -17 0 -11 -29 10 -50 17 -17 44
-51 188 -244 20 -27 45 -57 55 -68 9 -10 17 -22 17 -28 0 -5 5 -10 10 -10 6 0
10 -4 10 -10 0 -5 21 -38 48 -74 26 -35 74 -103 107 -151 33 -48 65 -93 70
-99 25 -27 175 -246 175 -255 0 -5 3 -11 8 -13 4 -1 39 -50 77 -108 39 -58 72
-107 75 -110 3 -3 32 -45 65 -95 33 -49 63 -91 67 -93 5 -2 8 -8 8 -13 0 -12
160 -251 175 -261 6 -5 6 -8 0 -8 -6 0 -6 -3 0 -8 6 -4 51 -69 100 -145 50
-76 96 -145 103 -152 6 -8 12 -16 12 -19 0 -6 52 -87 101 -158 21 -30 146
-232 163 -263 19 -35 143 -233 163 -261 18 -23 34 -50 42 -70 5 -11 28 -51 50
-88 23 -36 41 -69 41 -72 0 -2 5 -10 10 -17 17 -20 59 -86 76 -120 9 -17 20
-34 23 -37 3 -3 15 -23 26 -45 25 -50 87 -148 100 -157 5 -4 6 -8 2 -8 -4 0 6
-20 23 -44 16 -25 30 -47 30 -49 0 -8 81 -150 96 -167 6 -8 24 -37 38 -65 32
-60 32 -60 89 -155 24 -41 61 -106 82 -145 37 -69 68 -122 93 -160 6 -11 16
-29 21 -40 5 -12 31 -59 58 -105 28 -47 66 -114 85 -150 19 -36 45 -82 59
-102 42 -65 140 -88 221 -52 35 15 537 342 574 372 5 5 21 15 34 22 66 35 122
131 115 197 -3 34 -17 73 -26 73 -5 0 -9 5 -9 11 0 6 -20 34 -44 62 -24 29
-68 84 -97 123 -30 39 -68 89 -86 110 -18 21 -52 66 -77 99 -24 33 -54 70 -65
82 -12 12 -21 25 -21 27 0 3 -6 14 -14 23 -37 45 -167 216 -216 283 -30 41
-57 77 -60 80 -5 4 -134 178 -178 238 -49 68 -77 102 -84 102 -4 0 -8 5 -8 10
0 9 -35 65 -50 80 -16 16 -90 120 -90 127 0 5 -9 14 -20 21 -11 7 -20 19 -20
27 0 8 -3 15 -7 15 -5 0 -19 17 -33 37 -40 59 -252 356 -264 370 -28 32 -36
43 -31 43 3 0 -4 10 -15 23 -12 12 -29 36 -37 52 -9 17 -19 32 -23 35 -4 3
-31 41 -60 85 -29 44 -57 82 -62 83 -4 2 -8 9 -8 16 0 7 -8 21 -17 32 -27 30
-83 114 -83 123 0 5 -4 11 -8 13 -11 4 -72 94 -72 106 0 6 -4 12 -9 14 -10 4
-291 428 -291 440 0 4 -4 8 -10 8 -5 0 -10 7 -10 15 0 8 -4 15 -10 15 -5 0
-10 4 -10 10 0 5 -28 51 -61 102 -34 51 -84 127 -111 168 -26 41 -53 80 -58
87 -6 7 -15 24 -22 38 -6 14 -15 25 -20 25 -4 0 -8 6 -8 14 0 8 -3 16 -8 18
-4 2 -34 48 -67 103 -33 55 -62 102 -65 105 -7 7 -29 42 -37 60 -4 8 -31 53
-61 100 -73 113 -267 449 -276 477 -8 24 -24 33 -46 25z"/>
<path d="M3321 3213 c-1 -7 -9 -13 -18 -13 -36 -1 -66 -38 -71 -88 -4 -51 -2
-54 76 -121 l23 -19 -67 -103 c-37 -57 -72 -107 -78 -111 -7 -5 -7 -8 -1 -8 6
0 6 -3 0 -8 -6 -4 -27 -32 -46 -62 -108 -167 -174 -265 -181 -268 -4 -2 -8 -8
-8 -13 0 -11 -152 -243 -162 -247 -5 -2 -8 -8 -8 -14 0 -11 -61 -101 -73 -106
-4 -2 -5 -8 -1 -13 3 -5 1 -9 -3 -9 -5 0 -17 -16 -27 -35 -11 -19 -23 -35 -28
-35 -4 0 -8 -5 -8 -10 0 -10 -79 -132 -329 -510 -53 -79 -98 -149 -101 -155
-3 -5 -36 -57 -74 -115 -38 -58 -73 -121 -78 -140 -5 -19 -10 -42 -12 -50 -2
-8 -18 -70 -35 -138 -17 -68 -29 -127 -26 -132 8 -12 307 223 326 257 18 30
130 204 154 238 27 38 145 218 145 221 0 2 54 85 121 186 67 101 157 237 200
303 43 66 83 125 87 131 5 5 15 21 22 34 7 13 17 29 22 34 5 6 69 103 143 216
73 113 138 210 144 217 6 7 11 14 11 16 0 5 124 195 138 212 4 6 17 25 27 43
18 30 45 44 45 22 0 -5 6 -10 14 -10 8 0 16 -5 18 -10 2 -6 26 -13 53 -16 47
-6 52 -4 83 27 40 41 43 90 9 130 -23 28 -199 149 -216 149 -5 0 -11 3 -13 8
-4 9 -65 52 -74 52 -3 0 -19 11 -36 25 -16 14 -40 25 -53 25 -13 0 -26 6 -28
13 -4 10 -6 10 -6 0z"/>
</g>
</svg>
